#define icon2_width 64
#define icon2_height 64
static char icon2_bits[] PROGMEM = {
  0x00, 0x00, 0x00, 0x00, 0x00, 0x00, 0x00, 0x00, 0x00, 0x00, 0x00, 0x00, 
  0x00, 0x00, 0x00, 0x00, 0x00, 0x00, 0x00, 0x00, 0x00, 0x00, 0x00, 0x00, 
  0x00, 0x00, 0x00, 0x00, 0x00, 0x00, 0x00, 0x00, 0x00, 0x00, 0x00, 0x00, 
  0x00, 0x00, 0x00, 0x00, 0x00, 0x00, 0x00, 0x00, 0x00, 0x00, 0x00, 0x00, 
  0x00, 0x00, 0x00, 0x00, 0x00, 0x00, 0x00, 0x00, 0x00, 0x00, 0x00, 0x00, 
  0x00, 0x00, 0x00, 0x00, 0x00, 0x00, 0x00, 0x00, 0x00, 0x00, 0x00, 0x00, 
  0x00, 0x00, 0x02, 0x00, 0x00, 0x00, 0x00, 0x00, 0x00, 0x00, 0x1E, 0x00, 
  0x00, 0x00, 0x00, 0x00, 0x00, 0x00, 0x7C, 0x00, 0x00, 0x00, 0x00, 0x00, 
  0x00, 0x20, 0xFC, 0x01, 0x00, 0x00, 0x00, 0x00, 0x00, 0xE0, 0xF8, 0x07, 
  0x00, 0x00, 0x00, 0x00, 0x00, 0xE0, 0xF9, 0x1F, 0x00, 0x00, 0x00, 0x00, 
  0x00, 0xC0, 0xF1, 0x3F, 0x00, 0x00, 0x00, 0x00, 0x00, 0x80, 0xE3, 0xFE, 
  0x00, 0x00, 0x00, 0x00, 0x00, 0x80, 0xE7, 0xF0, 0x01, 0x00, 0x00, 0x00, 
  0x00, 0x00, 0xC3, 0xC1, 0x03, 0x00, 0x00, 0x00, 0x00, 0x00, 0x86, 0x03, 
  0x07, 0x00, 0x00, 0x00, 0x00, 0x00, 0x04, 0x07, 0x0C, 0x00, 0x00, 0x00, 
  0x00, 0x00, 0x08, 0x0E, 0x18, 0x00, 0x00, 0x00, 0x00, 0x00, 0x10, 0x18, 
  0x70, 0x00, 0x00, 0x00, 0x00, 0x00, 0x00, 0x30, 0xC0, 0x00, 0x00, 0x00, 
  0x00, 0x00, 0x00, 0x60, 0x80, 0x01, 0x00, 0x00, 0x00, 0x00, 0x00, 0x80, 
  0x81, 0x03, 0x00, 0x00, 0x00, 0x00, 0x00, 0x1E, 0x06, 0x07, 0x00, 0x00, 
  0x00, 0x00, 0x80, 0x3F, 0x00, 0x1E, 0x00, 0x00, 0x00, 0x00, 0x00, 0x00, 
  0x00, 0x7C, 0x00, 0x00, 0x00, 0x00, 0xC0, 0x01, 0x00, 0xFE, 0x01, 0x00, 
  0x00, 0x00, 0xF8, 0x00, 0x00, 0xC7, 0x01, 0x00, 0x00, 0x00, 0x0C, 0x00, 
  0x00, 0xC2, 0x03, 0x00, 0x00, 0x00, 0x00, 0x00, 0x00, 0xC6, 0x07, 0x00, 
  0x00, 0x00, 0x00, 0x00, 0x00, 0xC4, 0x0F, 0x00, 0x00, 0x00, 0x00, 0xC0, 
  0xC1, 0x88, 0x1F, 0x00, 0x00, 0x00, 0x00, 0x70, 0xF0, 0x03, 0x1F, 0x00, 
  0x00, 0x00, 0x00, 0x1E, 0x38, 0x04, 0x1E, 0x00, 0x00, 0x00, 0x00, 0x07, 
  0x1C, 0x08, 0x0C, 0x00, 0x00, 0x00, 0xC0, 0x07, 0x1C, 0x00, 0x0C, 0x00, 
  0x00, 0x00, 0xE0, 0x03, 0x1C, 0x00, 0x04, 0x00, 0x00, 0x00, 0xF0, 0x01, 
  0x1C, 0x00, 0x06, 0x00, 0x00, 0x00, 0x00, 0x00, 0x1C, 0x00, 0x02, 0x00, 
  0x00, 0x00, 0x00, 0x00, 0x38, 0x70, 0x00, 0x00, 0x00, 0x00, 0x00, 0x00, 
  0xF0, 0x07, 0x00, 0x00, 0x00, 0x00, 0x00, 0x00, 0xC0, 0x00, 0x00, 0x00, 
  0x00, 0x00, 0x00, 0x00, 0x00, 0x3C, 0x00, 0x00, 0x00, 0x00, 0x00, 0x00, 
  0x00, 0x0F, 0x00, 0x00, 0x00, 0x00, 0x00, 0x00, 0x80, 0x07, 0x00, 0x00, 
  0x00, 0x00, 0x00, 0x00, 0xE0, 0x03, 0x00, 0x00, 0x00, 0x00, 0x00, 0x00, 
  0xF0, 0x03, 0x00, 0x00, 0x00, 0x00, 0x00, 0x00, 0xF8, 0x01, 0x00, 0x00, 
  0x00, 0x00, 0x00, 0x00, 0x00, 0x00, 0x00, 0x00, 0x00, 0x00, 0x00, 0x00, 
  0x00, 0x00, 0x00, 0x00, 0x00, 0x00, 0x00, 0x00, 0x3E, 0x00, 0x00, 0x00, 
  0x00, 0x00, 0x00, 0x00, 0x00, 0x00, 0x00, 0x00, 0x00, 0x00, 0x00, 0x00, 
  0x00, 0x00, 0x00, 0x00, 0x00, 0x00, 0x00, 0x00, 0x00, 0x00, 0x00, 0x00, 
  0x00, 0x00, 0x00, 0x00, 0x00, 0x00, 0x00, 0x00, 0x00, 0x00, 0x00, 0x00, 
  0x00, 0x00, 0x00, 0x00, 0x00, 0x00, 0x00, 0x00, 0x00, 0x00, 0x00, 0x00, 
  0x00, 0x00, 0x00, 0x00, 0x00, 0x00, 0x00, 0x00, 0x00, 0x00, 0x00, 0x00, 
  0x00, 0x00, 0x00, 0x00, 0x00, 0x00, 0x00, 0x00, 0x00, 0x00, 0x00, 0x00, 
  0x00, 0x00, 0x00, 0x00, 0x00, 0x00, 0x00, 0x00, };
