#define icon6_width 64
#define icon6_height 64
static char icon6_bits[] = {
  0x00, 0x00, 0x00, 0x00, 0x00, 0x00, 0x00, 0x00, 0x00, 0x00, 0x00, 0x00, 
  0x00, 0x00, 0x00, 0x00, 0x00, 0x00, 0x00, 0x00, 0x00, 0x00, 0x00, 0x00, 
  0x00, 0x00, 0x00, 0x00, 0x00, 0x00, 0x00, 0x00, 0x00, 0x00, 0x00, 0x00, 
  0x00, 0x00, 0x00, 0x00, 0x00, 0x00, 0x00, 0x00, 0x00, 0x00, 0x00, 0x00, 
  0x00, 0x00, 0x00, 0x00, 0x00, 0x00, 0x00, 0x00, 0x00, 0x00, 0x00, 0x00, 
  0x00, 0x00, 0x00, 0x00, 0x00, 0x00, 0x00, 0x00, 0x00, 0x00, 0x00, 0x00, 
  0x00, 0x00, 0x00, 0x00, 0x00, 0x00, 0x00, 0x00, 0x00, 0x00, 0x00, 0x00, 
  0x00, 0x00, 0x00, 0x00, 0x00, 0x00, 0x00, 0x00, 0x00, 0x00, 0x00, 0x00, 
  0x00, 0x00, 0x00, 0x0F, 0x00, 0x00, 0x00, 0x00, 0x00, 0x00, 0x00, 0x3E, 
  0x00, 0x00, 0x00, 0x00, 0x00, 0x00, 0x00, 0x7C, 0x00, 0x00, 0x00, 0x00, 
  0x00, 0x00, 0x00, 0xF8, 0x01, 0x00, 0x00, 0x00, 0x00, 0x00, 0x00, 0xF8, 
  0x01, 0x00, 0x00, 0x00, 0x00, 0x00, 0x00, 0xF0, 0x08, 0x00, 0x00, 0x00, 
  0x00, 0x00, 0x00, 0x70, 0x04, 0x00, 0x00, 0x00, 0x00, 0x00, 0x00, 0x20, 
  0x32, 0x00, 0x00, 0x00, 0x00, 0x00, 0x00, 0x10, 0xF9, 0x00, 0x00, 0x00, 
  0x00, 0x00, 0x00, 0x98, 0xE8, 0x01, 0x00, 0x00, 0x00, 0x00, 0x00, 0x48, 
  0x80, 0x07, 0x00, 0x00, 0x00, 0x00, 0x00, 0x48, 0x00, 0x0F, 0x00, 0x00, 
  0x00, 0x00, 0x00, 0x64, 0x18, 0x1E, 0x00, 0x00, 0x00, 0x00, 0x00, 0x20, 
  0x78, 0x1C, 0x00, 0x00, 0x00, 0x00, 0x00, 0x32, 0x98, 0x39, 0x00, 0x00, 
  0x00, 0x00, 0x00, 0x12, 0x00, 0x32, 0x00, 0x00, 0x00, 0x00, 0x00, 0x12, 
  0x80, 0x77, 0x00, 0x00, 0x00, 0x00, 0x00, 0x1A, 0xC0, 0x7F, 0x00, 0x00, 
  0x00, 0x00, 0x00, 0x18, 0xE4, 0xF8, 0x00, 0x00, 0x00, 0x00, 0x00, 0x10, 
  0x78, 0xF0, 0x00, 0x00, 0x00, 0x00, 0x00, 0x10, 0x20, 0xE0, 0x00, 0x00, 
  0x00, 0x00, 0x00, 0x10, 0x20, 0xE0, 0x00, 0x00, 0x00, 0x00, 0x00, 0x30, 
  0x20, 0xE0, 0x00, 0x00, 0x00, 0x00, 0x00, 0x30, 0x00, 0xE0, 0x00, 0x00, 
  0x00, 0x00, 0xC0, 0x33, 0x00, 0xF0, 0x00, 0x00, 0x00, 0x00, 0xE0, 0x30, 
  0x00, 0xF8, 0x00, 0x00, 0x00, 0x00, 0x30, 0x98, 0x03, 0x7E, 0x00, 0x00, 
  0x00, 0x00, 0x04, 0xC6, 0x00, 0x70, 0x00, 0x00, 0x00, 0x00, 0x80, 0x43, 
  0x00, 0x38, 0x00, 0x00, 0x00, 0x00, 0xE0, 0x40, 0x00, 0x3C, 0x00, 0x00, 
  0x00, 0x00, 0x00, 0x40, 0x00, 0x1E, 0x00, 0x00, 0x00, 0x00, 0x00, 0xC0, 
  0x00, 0x1C, 0x00, 0x00, 0x00, 0x00, 0x00, 0xC0, 0x00, 0x08, 0x00, 0x00, 
  0x00, 0x00, 0x00, 0x80, 0x03, 0x02, 0x00, 0x00, 0x00, 0x00, 0x00, 0x00, 
  0x1C, 0x07, 0x00, 0x00, 0x00, 0x00, 0x00, 0x60, 0xE0, 0x07, 0x00, 0x00, 
  0x00, 0x00, 0x00, 0xF0, 0x01, 0x03, 0x00, 0x00, 0x00, 0x00, 0x00, 0xE0, 
  0x01, 0x00, 0x00, 0x00, 0x00, 0x00, 0x00, 0x80, 0x00, 0x00, 0x00, 0x00, 
  0x00, 0x00, 0x00, 0x1E, 0x00, 0x00, 0x00, 0x00, 0x00, 0x00, 0x00, 0x08, 
  0x00, 0x00, 0x00, 0x00, 0x00, 0x00, 0x00, 0x00, 0x00, 0x00, 0x00, 0x00, 
  0x00, 0x00, 0x00, 0x00, 0x00, 0x00, 0x00, 0x00, 0x00, 0x00, 0x00, 0x00, 
  0x00, 0x00, 0x00, 0x00, 0x00, 0x00, 0x00, 0x00, 0x00, 0x00, 0x00, 0x00, 
  0x00, 0x00, 0x00, 0x00, 0x00, 0x00, 0x00, 0x00, 0x00, 0x00, 0x00, 0x00, 
  0x00, 0x00, 0x00, 0x00, 0x00, 0x00, 0x00, 0x00, 0x00, 0x00, 0x00, 0x00, 
  0x00, 0x00, 0x00, 0x00, 0x00, 0x00, 0x00, 0x00, 0x00, 0x00, 0x00, 0x00, 
  0x00, 0x00, 0x00, 0x00, 0x00, 0x00, 0x00, 0x00, 0x00, 0x00, 0x00, 0x00, 
  0x00, 0x00, 0x00, 0x00, 0x00, 0x00, 0x00, 0x00, };
