#define icon8_width 64
#define icon8_height 64
static char icon8_bits[] PROGMEM = {
  0x00, 0x00, 0x00, 0x00, 0x00, 0x00, 0x00, 0x00, 0x00, 0x00, 0x00, 0x00, 
  0x00, 0x00, 0x00, 0x00, 0x00, 0x00, 0x00, 0x00, 0x00, 0x00, 0x00, 0x00, 
  0x00, 0x00, 0x00, 0x00, 0x00, 0x00, 0x00, 0x00, 0x00, 0x00, 0x00, 0x00, 
  0x00, 0x00, 0x00, 0x00, 0x00, 0x00, 0x00, 0x00, 0x00, 0x00, 0x00, 0x00, 
  0x00, 0x00, 0x00, 0x00, 0x00, 0x00, 0x00, 0x00, 0x00, 0x00, 0x00, 0x00, 
  0x00, 0x00, 0x00, 0x00, 0x00, 0x00, 0x00, 0x00, 0x00, 0x00, 0x00, 0x00, 
  0x00, 0x00, 0x00, 0x00, 0x00, 0x00, 0x00, 0x00, 0x00, 0x00, 0x00, 0x00, 
  0x00, 0x00, 0x00, 0x00, 0x00, 0x00, 0x00, 0x00, 0x00, 0x00, 0x00, 0x00, 
  0x00, 0x00, 0x00, 0x00, 0x00, 0x00, 0x00, 0x00, 0x00, 0x00, 0x00, 0x00, 
  0x00, 0x00, 0x04, 0x00, 0x00, 0x00, 0x00, 0x00, 0x00, 0x00, 0x06, 0x00, 
  0x00, 0x00, 0x00, 0x00, 0x00, 0x00, 0x07, 0x00, 0x00, 0x00, 0x00, 0x00, 
  0x00, 0xE0, 0x07, 0x00, 0x00, 0x00, 0x00, 0x00, 0xF8, 0xFF, 0x03, 0x00, 
  0x00, 0x00, 0x00, 0x80, 0xFF, 0xFF, 0x01, 0x00, 0x00, 0x00, 0x00, 0xC0, 
  0xFF, 0xFF, 0x00, 0x00, 0x00, 0x00, 0x00, 0xF0, 0xFF, 0x7F, 0x00, 0x00, 
  0x00, 0x00, 0x00, 0xF8, 0xFF, 0x1F, 0x00, 0x00, 0x00, 0x00, 0xF0, 0xF9, 
  0xFF, 0x0F, 0x00, 0x00, 0x00, 0x00, 0xC0, 0xFC, 0x7F, 0x00, 0x00, 0x00, 
  0x00, 0x00, 0x98, 0xFC, 0x01, 0x00, 0x00, 0x00, 0x00, 0x00, 0x1C, 0xFC, 
  0xC0, 0x03, 0x00, 0x00, 0x00, 0x00, 0x1F, 0xF8, 0xF0, 0x0F, 0x00, 0x00, 
  0x00, 0x80, 0x0F, 0xF0, 0x88, 0x3F, 0x00, 0x00, 0x00, 0xC0, 0x00, 0x00, 
  0x00, 0x7E, 0x00, 0x00, 0x00, 0x00, 0x00, 0x00, 0x00, 0xF2, 0x00, 0x00, 
  0x00, 0x80, 0x03, 0xC0, 0x01, 0xE0, 0x01, 0x00, 0x00, 0xC0, 0x01, 0x10, 
  0x02, 0xC4, 0x03, 0x00, 0x00, 0xE0, 0x01, 0x30, 0x0F, 0xC0, 0x06, 0x00, 
  0x00, 0xE0, 0x00, 0xB8, 0x0F, 0x00, 0x06, 0x00, 0x00, 0x30, 0x00, 0xB0, 
  0x1F, 0x00, 0x06, 0x00, 0x00, 0x90, 0x01, 0x80, 0x1F, 0x00, 0x07, 0x00, 
  0x00, 0xC0, 0x01, 0x38, 0x3F, 0x08, 0x03, 0x00, 0x00, 0xE0, 0x01, 0x38, 
  0x3E, 0x10, 0x01, 0x00, 0x00, 0xE0, 0x00, 0x18, 0x7C, 0x00, 0x00, 0x00, 
  0x00, 0x60, 0x00, 0xE0, 0xF8, 0x41, 0x00, 0x00, 0x00, 0x20, 0x03, 0xF0, 
  0xE0, 0x63, 0x00, 0x00, 0x00, 0x80, 0x01, 0xC0, 0x80, 0x7F, 0x00, 0x00, 
  0x00, 0x80, 0x01, 0x00, 0x06, 0x0C, 0x00, 0x00, 0x00, 0x80, 0x04, 0x00, 
  0x07, 0x00, 0x00, 0x00, 0x00, 0x80, 0x0C, 0x00, 0x16, 0x00, 0x00, 0x00, 
  0x00, 0x00, 0x0C, 0x00, 0x18, 0x00, 0x00, 0x00, 0x00, 0x00, 0x2C, 0x00, 
  0x30, 0x00, 0x00, 0x00, 0x00, 0x00, 0x68, 0x00, 0x00, 0x00, 0x00, 0x00, 
  0x00, 0x00, 0xC0, 0x00, 0x00, 0x00, 0x00, 0x00, 0x00, 0x00, 0x00, 0x00, 
  0x40, 0x00, 0x00, 0x00, 0x00, 0x00, 0x00, 0x00, 0x00, 0x00, 0x00, 0x00, 
  0x00, 0x00, 0x00, 0x00, 0x00, 0x00, 0x00, 0x00, 0x00, 0x00, 0x00, 0x00, 
  0x00, 0x00, 0x00, 0x00, 0x00, 0x00, 0x00, 0x00, 0x00, 0x00, 0x00, 0x00, 
  0x00, 0x00, 0x00, 0x00, 0x00, 0x00, 0x00, 0x00, 0x00, 0x00, 0x00, 0x00, 
  0x00, 0x00, 0x00, 0x00, 0x00, 0x00, 0x00, 0x00, 0x00, 0x00, 0x00, 0x00, 
  0x00, 0x00, 0x00, 0x00, 0x00, 0x00, 0x00, 0x00, 0x00, 0x00, 0x00, 0x00, 
  0x00, 0x00, 0x00, 0x00, 0x00, 0x00, 0x00, 0x00, 0x00, 0x00, 0x00, 0x00, 
  0x00, 0x00, 0x00, 0x00, 0x00, 0x00, 0x00, 0x00, 0x00, 0x00, 0x00, 0x00, 
  0x00, 0x00, 0x00, 0x00, 0x00, 0x00, 0x00, 0x00, 0x00, 0x00, 0x00, 0x00, 
  0x00, 0x00, 0x00, 0x00, 0x00, 0x00, 0x00, 0x00, };
