#define icon5_width 64
#define icon5_height 64
static const char icon5_bits[] PROGMEM = {
  0x00, 0x00, 0x00, 0x00, 0x00, 0x00, 0x00, 0x00, 0x00, 0x00, 0x00, 0x00, 
  0x00, 0x00, 0x00, 0x00, 0x00, 0x00, 0x00, 0x00, 0x00, 0x00, 0x00, 0x00, 
  0x00, 0x00, 0x00, 0x00, 0x00, 0x00, 0x00, 0x00, 0x00, 0x00, 0x00, 0x00, 
  0x00, 0x00, 0x00, 0x00, 0x00, 0x00, 0x00, 0x00, 0x00, 0x00, 0x00, 0x00, 
  0x00, 0x00, 0x00, 0x00, 0x00, 0x00, 0x00, 0x00, 0x00, 0x00, 0x00, 0x00, 
  0x00, 0x00, 0x00, 0x00, 0x00, 0x00, 0x00, 0x00, 0x00, 0x00, 0x00, 0x00, 
  0x00, 0x00, 0x00, 0x00, 0x00, 0x00, 0x00, 0x00, 0x00, 0x00, 0x00, 0x00, 
  0x00, 0x00, 0x00, 0x00, 0x00, 0x00, 0x00, 0x00, 0x00, 0x00, 0x00, 0x00, 
  0x00, 0x00, 0x00, 0x02, 0x00, 0x00, 0x00, 0x00, 0x00, 0x00, 0x00, 0x02, 
  0x00, 0x00, 0x00, 0x00, 0x00, 0x00, 0x00, 0x02, 0x00, 0x00, 0x00, 0x00, 
  0x00, 0x00, 0x00, 0x06, 0x00, 0x00, 0x00, 0x00, 0x00, 0x00, 0x00, 0x06, 
  0x00, 0x00, 0x00, 0x00, 0x00, 0x00, 0x00, 0x0C, 0x00, 0x00, 0x00, 0x00, 
  0x00, 0x00, 0x80, 0x0D, 0x00, 0x00, 0x00, 0x00, 0x00, 0x00, 0x80, 0x1D, 
  0x00, 0x00, 0x00, 0x00, 0x00, 0x00, 0x80, 0x39, 0x08, 0x00, 0x00, 0x00, 
  0x00, 0x00, 0xC0, 0x7B, 0x08, 0x00, 0x00, 0x00, 0x00, 0x00, 0xC0, 0xF3, 
  0x18, 0x00, 0x00, 0x00, 0x00, 0x00, 0xC0, 0xE7, 0x61, 0x00, 0x00, 0x00, 
  0x00, 0x00, 0xC0, 0xC7, 0xC3, 0x00, 0x00, 0x00, 0x00, 0x00, 0x80, 0x8F, 
  0x87, 0x01, 0x00, 0x00, 0x00, 0x00, 0x80, 0x3F, 0x1F, 0x03, 0x00, 0x00, 
  0x00, 0x00, 0x00, 0xFF, 0x3C, 0x02, 0x00, 0x00, 0x00, 0x00, 0x00, 0xFE, 
  0xF3, 0x04, 0x00, 0x00, 0x00, 0x00, 0x00, 0x00, 0xC0, 0x09, 0x00, 0x00, 
  0x00, 0x00, 0x08, 0x00, 0x00, 0x13, 0x00, 0x00, 0x00, 0x00, 0x06, 0x00, 
  0x00, 0x06, 0x00, 0x00, 0x00, 0x00, 0x03, 0x00, 0xE0, 0x2F, 0x00, 0x00, 
  0x00, 0x00, 0x01, 0x40, 0x60, 0x48, 0x00, 0x00, 0x00, 0x40, 0x00, 0x60, 
  0x40, 0xC0, 0x00, 0x00, 0x00, 0x00, 0x00, 0x30, 0x80, 0x84, 0x00, 0x00, 
  0x00, 0x00, 0x00, 0x30, 0x00, 0x86, 0x01, 0x00, 0x00, 0x00, 0x00, 0xF8, 
  0x01, 0x80, 0x01, 0x00, 0x00, 0x00, 0x00, 0x38, 0x80, 0x81, 0x01, 0x00, 
  0x00, 0x00, 0x00, 0x0C, 0x80, 0x8F, 0x01, 0x00, 0x00, 0x00, 0x00, 0x04, 
  0xC0, 0xEB, 0x01, 0x00, 0x00, 0x00, 0x00, 0x20, 0xF0, 0x87, 0x01, 0x00, 
  0x00, 0x00, 0x00, 0x30, 0xC0, 0x05, 0x01, 0x00, 0x00, 0x00, 0x00, 0x18, 
  0xC2, 0x00, 0x00, 0x00, 0x00, 0x00, 0x00, 0x00, 0x02, 0x00, 0x00, 0x00, 
  0x00, 0x00, 0x00, 0x00, 0x07, 0x10, 0x00, 0x00, 0x00, 0x00, 0x00, 0x00, 
  0x0F, 0x0A, 0x00, 0x00, 0x00, 0x00, 0x00, 0x80, 0x1F, 0x0C, 0x00, 0x00, 
  0x00, 0x00, 0x00, 0x00, 0x1F, 0x0C, 0x00, 0x00, 0x00, 0x00, 0x00, 0x00, 
  0x9E, 0x00, 0x00, 0x00, 0x00, 0x00, 0x00, 0x00, 0x8C, 0x00, 0x00, 0x00, 
  0x00, 0x00, 0x00, 0x00, 0x40, 0x00, 0x00, 0x00, 0x00, 0x00, 0x00, 0x00, 
  0x60, 0x00, 0x00, 0x00, 0x00, 0x00, 0x00, 0x00, 0x20, 0x00, 0x00, 0x00, 
  0x00, 0x00, 0x00, 0x00, 0x00, 0x00, 0x00, 0x00, 0x00, 0x00, 0x00, 0x00, 
  0x00, 0x00, 0x00, 0x00, 0x00, 0x00, 0x00, 0x00, 0x00, 0x00, 0x00, 0x00, 
  0x00, 0x00, 0x00, 0x00, 0x00, 0x00, 0x00, 0x00, 0x00, 0x00, 0x00, 0x00, 
  0x00, 0x00, 0x00, 0x00, 0x00, 0x00, 0x00, 0x00, 0x00, 0x00, 0x00, 0x00, 
  0x00, 0x00, 0x00, 0x00, 0x00, 0x00, 0x00, 0x00, 0x00, 0x00, 0x00, 0x00, 
  0x00, 0x00, 0x00, 0x00, 0x00, 0x00, 0x00, 0x00, 0x00, 0x00, 0x00, 0x00, 
  0x00, 0x00, 0x00, 0x00, 0x00, 0x00, 0x00, 0x00, };
