#define icon3_width 64
#define icon3_height 64
static char icon3_bits[] PROGMEM = {
  0x00, 0x00, 0x00, 0x00, 0x00, 0x00, 0x00, 0x00, 0x00, 0x00, 0x00, 0x00, 
  0x00, 0x00, 0x00, 0x00, 0x00, 0x00, 0x00, 0x00, 0x00, 0x00, 0x00, 0x00, 
  0x00, 0x00, 0x00, 0x00, 0x00, 0x00, 0x00, 0x00, 0x00, 0x00, 0x00, 0x00, 
  0x00, 0x00, 0x00, 0x00, 0x00, 0x00, 0x00, 0x00, 0x00, 0x00, 0x00, 0x00, 
  0x00, 0x00, 0x00, 0x00, 0x00, 0x00, 0x00, 0x00, 0x00, 0x00, 0x00, 0x00, 
  0x00, 0x00, 0x00, 0x00, 0x00, 0x00, 0x00, 0x00, 0x00, 0x00, 0x00, 0x00, 
  0x00, 0x00, 0x00, 0x00, 0x00, 0x00, 0x00, 0x00, 0x00, 0x00, 0x00, 0x00, 
  0x00, 0x00, 0x00, 0x00, 0x00, 0x00, 0x00, 0x00, 0x00, 0x00, 0x00, 0x00, 
  0x00, 0x00, 0x00, 0x10, 0x0E, 0x00, 0x00, 0x00, 0x00, 0x00, 0xF8, 0x1F, 
  0x07, 0x00, 0x00, 0x00, 0x00, 0x00, 0xFE, 0x1F, 0x86, 0x01, 0x00, 0x00, 
  0x00, 0x80, 0xFF, 0x1F, 0x8E, 0x01, 0x00, 0x00, 0x00, 0xE0, 0x1F, 0xE0, 
  0xFF, 0x03, 0x00, 0x00, 0x00, 0xF0, 0x07, 0xC0, 0xFF, 0x00, 0x00, 0x00, 
  0x00, 0xF8, 0x03, 0x80, 0xFF, 0x10, 0x00, 0x00, 0x00, 0xFC, 0xC7, 0x00, 
  0xFF, 0x30, 0x00, 0x00, 0x00, 0x04, 0xEE, 0x03, 0xFE, 0x3F, 0x00, 0x00, 
  0x00, 0x00, 0x78, 0x06, 0xFE, 0x7F, 0x00, 0x00, 0x00, 0x00, 0x30, 0x04, 
  0x06, 0xF8, 0x00, 0x00, 0x00, 0x00, 0x20, 0x64, 0x00, 0xE0, 0x01, 0x00, 
  0x00, 0x00, 0x00, 0x4C, 0x00, 0xC0, 0x03, 0x00, 0x00, 0x00, 0x00, 0x44, 
  0x18, 0x80, 0x07, 0x00, 0x00, 0x00, 0x00, 0x04, 0x0C, 0x83, 0x0F, 0x00, 
  0x00, 0x00, 0x00, 0x02, 0xC0, 0x0F, 0x0F, 0x00, 0x00, 0x00, 0x00, 0x00, 
  0xE0, 0x1C, 0x1F, 0x00, 0x00, 0x00, 0x00, 0x01, 0x60, 0x18, 0x1F, 0x00, 
  0x00, 0x00, 0x80, 0x00, 0x30, 0x38, 0x1F, 0x00, 0x00, 0x00, 0xC0, 0x04, 
  0x10, 0xFC, 0x3F, 0x00, 0x00, 0x00, 0xC0, 0x02, 0x10, 0x82, 0x3F, 0x00, 
  0x00, 0x00, 0xC0, 0x01, 0x10, 0x00, 0x3F, 0x00, 0x00, 0x00, 0xC0, 0x00, 
  0x10, 0x00, 0x3C, 0x00, 0x00, 0x00, 0xC0, 0x10, 0x02, 0x00, 0x38, 0x00, 
  0x00, 0x00, 0x40, 0x18, 0x0A, 0x00, 0x30, 0x00, 0x00, 0x00, 0x00, 0x1C, 
  0x0E, 0x00, 0x30, 0x00, 0x00, 0x00, 0x00, 0x1C, 0x0E, 0x00, 0x00, 0x00, 
  0x00, 0x00, 0x00, 0x0C, 0x06, 0x00, 0x00, 0x00, 0x00, 0x00, 0x00, 0x0C, 
  0x01, 0x00, 0x00, 0x00, 0x00, 0x00, 0x00, 0x04, 0x00, 0x00, 0x00, 0x00, 
  0x00, 0x00, 0x04, 0x06, 0x00, 0x00, 0x00, 0x00, 0x00, 0x00, 0x06, 0x02, 
  0x00, 0x00, 0x00, 0x00, 0x00, 0x00, 0x03, 0x02, 0x00, 0x00, 0x00, 0x00, 
  0x00, 0x00, 0x01, 0x02, 0x00, 0x00, 0x00, 0x00, 0x00, 0x80, 0x00, 0x03, 
  0x00, 0x00, 0x00, 0x00, 0x00, 0x00, 0x00, 0x01, 0x00, 0x00, 0x00, 0x00, 
  0x00, 0x00, 0x80, 0x01, 0x00, 0x00, 0x00, 0x00, 0x00, 0x00, 0xC0, 0x00, 
  0x00, 0x00, 0x00, 0x00, 0x00, 0x00, 0x60, 0x00, 0x00, 0x00, 0x00, 0x00, 
  0x00, 0x00, 0x38, 0x00, 0x00, 0x00, 0x00, 0x00, 0x00, 0x00, 0x00, 0x00, 
  0x00, 0x00, 0x00, 0x00, 0x00, 0x00, 0x00, 0x00, 0x00, 0x00, 0x00, 0x00, 
  0x00, 0x00, 0x00, 0x00, 0x00, 0x00, 0x00, 0x00, 0x00, 0x00, 0x00, 0x00, 
  0x00, 0x00, 0x00, 0x00, 0x00, 0x00, 0x00, 0x00, 0x00, 0x00, 0x00, 0x00, 
  0x00, 0x00, 0x00, 0x00, 0x00, 0x00, 0x00, 0x00, 0x00, 0x00, 0x00, 0x00, 
  0x00, 0x00, 0x00, 0x00, 0x00, 0x00, 0x00, 0x00, 0x00, 0x00, 0x00, 0x00, 
  0x00, 0x00, 0x00, 0x00, 0x00, 0x00, 0x00, 0x00, 0x00, 0x00, 0x00, 0x00, 
  0x00, 0x00, 0x00, 0x00, 0x00, 0x00, 0x00, 0x00, 0x00, 0x00, 0x00, 0x00, 
  0x00, 0x00, 0x00, 0x00, 0x00, 0x00, 0x00, 0x00, };
