#define icon7_width 64
#define icon7_height 64
static const char icon7_bits[] PROGMEM = {
  0x00, 0x00, 0x00, 0x00, 0x00, 0x00, 0x00, 0x00, 0x00, 0x00, 0x00, 0x00, 
  0x00, 0x00, 0x00, 0x00, 0x00, 0x00, 0x00, 0x00, 0x00, 0x00, 0x00, 0x00, 
  0x00, 0x00, 0x00, 0x00, 0x00, 0x00, 0x00, 0x00, 0x00, 0x00, 0x00, 0x00, 
  0x00, 0x00, 0x00, 0x00, 0x00, 0x00, 0x00, 0x00, 0x00, 0x00, 0x00, 0x00, 
  0x00, 0x00, 0x00, 0x00, 0x00, 0x00, 0x00, 0x00, 0x00, 0x00, 0x00, 0x00, 
  0x00, 0x00, 0x00, 0x00, 0x00, 0x00, 0x00, 0x00, 0x00, 0x00, 0x00, 0x00, 
  0x00, 0x00, 0x00, 0x00, 0x00, 0x00, 0x00, 0x00, 0x00, 0x00, 0x00, 0x00, 
  0x00, 0x00, 0x00, 0x00, 0x00, 0x00, 0xC0, 0x01, 0x00, 0x00, 0x00, 0x00, 
  0x00, 0x00, 0xF0, 0x07, 0x00, 0x00, 0x00, 0x00, 0x00, 0x00, 0xF8, 0x1F, 
  0x00, 0x00, 0x00, 0x00, 0x00, 0x00, 0xF8, 0x7F, 0x00, 0x00, 0x00, 0x00, 
  0x00, 0x00, 0xF8, 0xFF, 0x03, 0x00, 0x00, 0x00, 0x00, 0x00, 0x08, 0xFE, 
  0x1F, 0x00, 0x00, 0x00, 0x00, 0x00, 0x68, 0xF0, 0x07, 0x00, 0x00, 0x00, 
  0x00, 0x00, 0xF8, 0x01, 0x00, 0x00, 0x00, 0x00, 0x00, 0x00, 0xF8, 0x03, 
  0x00, 0x00, 0x00, 0x00, 0x00, 0x00, 0xF0, 0x07, 0x00, 0x00, 0x00, 0x00, 
  0x00, 0x00, 0xE0, 0x1F, 0x00, 0x00, 0x00, 0x00, 0x00, 0x00, 0xE0, 0x7F, 
  0x00, 0x00, 0x00, 0x00, 0x00, 0x00, 0xC0, 0xFF, 0x07, 0x00, 0x00, 0x00, 
  0x00, 0x00, 0x00, 0xFF, 0x0F, 0x00, 0x00, 0x00, 0x00, 0x00, 0x1C, 0xFE, 
  0x1F, 0x00, 0x00, 0x00, 0x00, 0xF0, 0x79, 0xFC, 0x1F, 0x00, 0x00, 0x00, 
  0x00, 0xE0, 0xE7, 0xF0, 0xBF, 0x01, 0x00, 0x00, 0x00, 0x80, 0x8F, 0x01, 
  0x98, 0x03, 0x00, 0x00, 0x00, 0x00, 0x1F, 0x03, 0x98, 0x0F, 0x00, 0x00, 
  0x00, 0x00, 0x3E, 0x00, 0x8C, 0x1F, 0x00, 0x00, 0x00, 0x00, 0x7C, 0x04, 
  0x00, 0x3E, 0x00, 0x00, 0x00, 0x00, 0xF8, 0x00, 0x00, 0x7A, 0x00, 0x00, 
  0x00, 0x00, 0x10, 0x00, 0x03, 0x6E, 0x00, 0x00, 0x00, 0x00, 0x00, 0xC0, 
  0x01, 0xDC, 0x00, 0x00, 0x00, 0x00, 0x00, 0x60, 0x00, 0x98, 0x00, 0x00, 
  0x00, 0x00, 0x00, 0x00, 0x1F, 0x20, 0x01, 0x00, 0x00, 0x00, 0x00, 0xC0, 
  0x01, 0x00, 0x01, 0x00, 0x00, 0x00, 0x00, 0x80, 0x00, 0x00, 0x03, 0x00, 
  0x00, 0x00, 0x00, 0x00, 0x1E, 0x00, 0x03, 0x00, 0x00, 0x00, 0x00, 0x00, 
  0x1E, 0x00, 0x03, 0x00, 0x00, 0x00, 0x00, 0x00, 0x1F, 0x00, 0x02, 0x00, 
  0x00, 0x00, 0x00, 0x80, 0x1F, 0x00, 0x00, 0x00, 0x00, 0x00, 0x00, 0x80, 
  0x1F, 0x20, 0x00, 0x00, 0x00, 0x00, 0x00, 0x00, 0x1F, 0x30, 0x00, 0x00, 
  0x00, 0x00, 0x00, 0x80, 0x0F, 0x38, 0x00, 0x00, 0x00, 0x00, 0x00, 0x80, 
  0x87, 0x1F, 0x00, 0x00, 0x00, 0x00, 0x00, 0xC0, 0xC3, 0x4F, 0x00, 0x00, 
  0x00, 0x00, 0x00, 0xE0, 0xC3, 0x63, 0x00, 0x00, 0x00, 0x00, 0x00, 0xF0, 
  0x00, 0x30, 0x00, 0x00, 0x00, 0x00, 0x00, 0x7C, 0x00, 0x00, 0x00, 0x00, 
  0x00, 0x00, 0x00, 0x00, 0x00, 0x00, 0x00, 0x00, 0x00, 0x00, 0x00, 0x00, 
  0x00, 0x00, 0x00, 0x00, 0x00, 0x00, 0x00, 0x00, 0x00, 0x00, 0x00, 0x00, 
  0x00, 0x00, 0x00, 0x00, 0x00, 0x00, 0x00, 0x00, 0x00, 0x00, 0x00, 0x00, 
  0x00, 0x00, 0x00, 0x00, 0x00, 0x00, 0x00, 0x00, 0x00, 0x00, 0x00, 0x00, 
  0x00, 0x00, 0x00, 0x00, 0x00, 0x00, 0x00, 0x00, 0x00, 0x00, 0x00, 0x00, 
  0x00, 0x00, 0x00, 0x00, 0x00, 0x00, 0x00, 0x00, 0x00, 0x00, 0x00, 0x00, 
  0x00, 0x00, 0x00, 0x00, 0x00, 0x00, 0x00, 0x00, 0x00, 0x00, 0x00, 0x00, 
  0x00, 0x00, 0x00, 0x00, 0x00, 0x00, 0x00, 0x00, 0x00, 0x00, 0x00, 0x00, 
  0x00, 0x00, 0x00, 0x00, 0x00, 0x00, 0x00, 0x00, };
